<svg
                class="divider"
                xmlns="http://www.w3.org/2000/svg"
                xmlns:xlink="http://www.w3.org/1999/xlink"
                data-name="Layer 1"
                preserveAspectRatio="xMidYMid meet"
                version="1.0"
                viewBox="0.0 -0.1 500.0 31.2"
                zoomAndPan="magnify"
                style="fill: rgb(0, 0, 0)"
                original_string_length="1160"
              >
                <g id="__id627_so3aqhxrv">
                  <path
                    d="M241.08,10.77,245.27,15,250,10.22,254.73,15l4.19-4.18L250,1.85Zm22.62,4.78-3.85,3.85L256,15.55l3.84-3.85Zm-27.4,0,3.85,3.85L244,15.55l-3.84-3.85ZM250,20.87l-4.73-4.73-4.19,4.19L250,29.25l8.92-8.92-4.19-4.19Zm11-10.36,4.56,4.57a.66.66,0,0,1,0,.94L261,20.58,270,29.5l14-13.95L270,1.6Zm-22.08,0L230,1.6l-13.95,14L230,29.5,239,20.58,234.4,16a.66.66,0,0,1,0-.94Zm21.14-.93L269.49.19a.68.68,0,0,1,.94,0l14.69,14.7,214.22-.28a.66.66,0,1,1,0,1.32l-214.22.28L270.43,30.9a.66.66,0,0,1-.94,0l-9.39-9.38-9.38,9.38a1.8,1.8,0,0,1-1.44,0l-9.38-9.38-9.39,9.38a.66.66,0,0,1-.94,0L214.88,16.21.66,15.93a.66.66,0,0,1,0-1.32l214.22.28L229.57.19a.68.68,0,0,1,.94,0l9.39,9.39L249.28.19a1.92,1.92,0,0,1,1.44,0Z"
                    fill-rule="evenodd"
                    style="fill: rgb(255, 255, 255)"
                  />
                </g>
              </svg>