<?xml version="1.0" standalone="no"?>
<!DOCTYPE svg PUBLIC "-//W3C//DTD SVG 20010904//EN"
 "http://www.w3.org/TR/2001/REC-SVG-20010904/DTD/svg10.dtd">
<svg version="1.0" xmlns="http://www.w3.org/2000/svg"
 width="3375.000000pt" height="3375.000000pt" viewBox="0 0 3375.000000 3375.000000"
 preserveAspectRatio="xMidYMid meet">

<g transform="translate(0.000000,3375.000000) scale(0.100000,-0.100000)"
fill="#000000" stroke="none">
<path d="M7080 21600 c-77 -7 -128 -17 -256 -49 -35 -9 -114 -43 -164 -71 -8
-5 -33 -19 -55 -30 -134 -73 -317 -242 -410 -381 -27 -41 -52 -76 -55 -79 -6
-6 -89 -174 -114 -232 -9 -20 -16 -45 -16 -56 0 -12 -4 -23 -9 -26 -5 -4 -12
-24 -16 -46 -4 -22 -11 -42 -16 -46 -5 -3 -9 -19 -9 -35 0 -16 -7 -46 -15 -66
-8 -19 -15 -53 -15 -74 0 -21 -7 -64 -15 -96 -21 -81 -21 -601 0 -688 8 -33
14 -79 15 -101 0 -23 7 -58 15 -77 8 -20 15 -51 15 -70 0 -18 4 -37 9 -43 4
-5 13 -27 19 -49 17 -66 60 -180 87 -230 14 -27 25 -54 25 -61 0 -8 4 -14 9
-14 5 0 12 -13 16 -30 4 -16 10 -30 15 -30 5 0 12 -10 16 -22 4 -13 24 -50 45
-84 22 -34 39 -64 39 -68 0 -4 5 -12 10 -19 6 -7 45 -59 87 -117 42 -58 79
-107 82 -110 4 -3 17 -18 30 -35 58 -76 195 -219 410 -430 378 -371 632 -626
692 -695 54 -63 199 -254 199 -263 0 -2 20 -35 45 -73 25 -37 45 -74 45 -80 0
-7 3 -14 8 -16 10 -4 102 -193 102 -210 0 -8 4 -18 9 -23 16 -18 63 -185 85
-300 13 -73 30 -277 29 -350 -2 -92 -21 -304 -29 -316 -4 -8 -11 -36 -15 -64
-9 -62 -26 -130 -45 -172 -8 -17 -14 -36 -14 -42 0 -6 -4 -19 -9 -29 -5 -9
-25 -51 -45 -92 -62 -126 -88 -166 -161 -246 -105 -116 -288 -244 -349 -244
-9 0 -24 -4 -34 -10 -24 -13 -200 -42 -212 -35 -5 3 -53 12 -107 19 -113 16
-184 33 -198 47 -5 5 -19 9 -31 9 -12 0 -27 7 -34 15 -7 8 -20 15 -30 15 -10
0 -23 7 -30 15 -7 8 -16 15 -21 15 -9 0 -110 59 -119 70 -3 3 -25 21 -50 40
-81 62 -150 133 -219 225 -79 105 -151 213 -151 225 0 5 -7 21 -15 37 -16 32
-73 158 -84 188 -32 82 -35 93 -61 225 -7 30 -16 69 -21 86 -5 17 -12 88 -16
158 -6 124 -7 127 -31 133 -54 13 -53 32 -50 -769 2 -521 6 -740 14 -748 6 -6
22 -8 36 -5 24 6 25 11 31 103 4 52 11 100 17 106 5 5 10 21 10 35 1 24 45
111 80 157 25 32 71 64 94 64 15 0 35 -18 62 -55 51 -69 136 -158 200 -210 27
-21 51 -42 54 -45 11 -13 101 -70 111 -70 5 0 9 -3 9 -8 0 -7 38 -28 110 -59
121 -54 143 -60 335 -98 161 -32 511 -10 660 41 23 8 48 14 57 14 9 0 31 8 50
17 18 9 45 22 60 30 14 7 33 13 42 13 9 0 16 4 16 9 0 5 10 13 23 17 12 4 24
9 27 13 3 3 21 15 40 25 68 37 156 110 250 205 52 54 100 104 105 113 6 9 31
47 57 85 47 69 121 211 153 293 10 25 21 54 25 65 38 94 86 295 100 415 5 41
13 99 19 129 14 66 14 339 0 441 -5 41 -14 113 -19 160 -9 82 -17 122 -46 224
-8 26 -14 58 -14 70 0 12 -4 26 -9 31 -5 6 -18 38 -30 73 -21 63 -25 72 -55
129 -9 17 -16 38 -16 46 0 8 -7 20 -15 27 -8 7 -15 19 -15 26 0 8 -17 42 -38
76 -21 35 -42 70 -46 78 -13 28 -86 140 -96 150 -4 3 -16 21 -27 40 -12 19
-30 44 -40 55 -10 11 -36 43 -58 70 -22 28 -51 62 -65 76 -14 15 -61 66 -105
115 -100 111 -124 135 -369 369 -476 456 -602 593 -778 850 -30 44 -57 87 -61
95 -4 8 -17 31 -29 50 -28 46 -108 206 -108 217 0 4 -11 31 -25 58 -13 28 -25
58 -25 67 0 10 -6 35 -14 55 -34 96 -45 168 -65 417 -13 155 7 441 38 556 47
173 48 174 102 285 77 157 188 283 293 335 35 16 69 30 77 30 8 0 19 4 25 9 5
4 39 16 76 25 75 18 301 22 352 6 17 -5 56 -16 86 -25 48 -15 148 -60 218
-100 103 -58 332 -281 332 -323 0 -6 3 -12 8 -14 10 -5 52 -66 52 -77 0 -5 4
-11 8 -13 10 -4 72 -105 72 -117 0 -5 6 -22 14 -38 8 -15 22 -46 31 -68 9 -22
20 -49 25 -60 9 -19 24 -76 37 -135 2 -14 11 -45 18 -70 14 -47 32 -165 43
-290 l7 -75 30 0 30 0 3 718 2 717 -35 0 c-35 0 -35 -1 -35 -42 0 -44 -21
-119 -47 -173 -21 -41 -101 -114 -132 -121 -14 -3 -35 -9 -46 -13 -31 -12 -55
1 -112 63 -70 75 -231 192 -334 243 -105 52 -154 73 -168 73 -6 0 -19 4 -29 9
-64 35 -354 57 -532 41z"/>
<path d="M9204 21506 c-3 -8 -4 -25 -2 -38 3 -23 3 -23 178 -26 150 -2 177 -5
188 -19 17 -24 18 -6543 0 -6561 -8 -8 -65 -12 -191 -12 l-178 0 3 -37 3 -38
744 -3 c557 -1 747 1 758 10 8 6 13 23 11 37 l-3 26 -185 5 -185 5 0 2112 c0
1676 3 2115 13 2125 6 6 12 23 12 37 1 15 12 44 25 66 14 22 28 47 31 55 9 20
84 112 104 127 8 6 33 27 55 47 22 20 43 36 48 36 4 0 24 10 45 23 69 42 144
60 249 60 70 -1 106 -5 128 -17 17 -9 36 -16 43 -16 6 0 12 -4 12 -10 0 -5 6
-10 13 -10 17 0 82 -64 117 -115 16 -23 39 -68 52 -101 l23 -59 3 -2169 c2
-1626 0 -2172 -9 -2182 -9 -11 -50 -14 -191 -14 l-179 0 3 -37 3 -38 750 0
750 0 3 38 3 37 -178 0 c-126 0 -183 4 -191 12 -9 9 -12 445 -12 1901 0 1245
-4 1922 -10 1985 -10 90 -30 180 -50 227 -5 11 -12 31 -16 45 -4 14 -18 42
-30 62 -13 21 -24 40 -24 43 0 11 -65 110 -89 134 -14 15 -40 43 -57 63 -36
41 -162 135 -214 159 -129 61 -172 79 -225 94 -33 9 -69 21 -80 26 -11 5 -74
13 -141 19 -160 13 -323 -1 -419 -37 -79 -30 -96 -39 -180 -102 -70 -53 -91
-73 -136 -135 -18 -25 -38 -46 -46 -46 -11 0 -13 192 -13 1104 0 997 -2 1104
-16 1110 -9 3 -263 6 -565 6 -467 0 -550 -2 -555 -14z"/>
<path d="M16124 21506 c-3 -8 -4 -25 -2 -38 3 -23 4 -23 186 -28 148 -4 185
-8 192 -20 6 -9 10 -1247 10 -3286 0 -2974 -1 -3272 -16 -3278 -9 -3 -97 -6
-195 -6 l-180 0 3 -37 3 -38 743 -3 c515 -1 749 1 763 9 14 7 19 18 17 37 l-3
27 -190 5 -190 5 -3 3333 -2 3332 -565 0 c-481 0 -566 -2 -571 -14z"/>
<path d="M18034 21506 c-3 -8 -4 -25 -2 -38 3 -23 3 -23 184 -26 137 -2 185
-6 193 -16 8 -9 10 -909 9 -3292 l-3 -3279 -193 -3 -193 -2 3 -38 3 -37 760 0
760 0 3 37 3 38 -193 2 -193 3 -5 3330 -5 3330 -563 3 c-481 2 -563 0 -568
-12z"/>
<path d="M13985 19615 c-138 -16 -236 -33 -249 -46 -6 -5 -18 -9 -28 -9 -9 0
-34 -7 -55 -16 -21 -9 -54 -24 -73 -32 -149 -64 -298 -180 -370 -287 -19 -27
-36 -52 -39 -55 -6 -5 -16 -26 -56 -112 -32 -71 -47 -159 -43 -257 3 -84 8
-105 37 -165 68 -143 196 -228 361 -242 46 -4 78 -1 110 10 25 9 55 16 66 16
12 0 27 7 34 15 7 8 18 15 25 15 26 0 133 115 164 175 56 111 57 264 3 375
-34 70 -122 157 -192 193 -31 15 -60 27 -66 27 -7 0 -44 7 -83 16 -50 11 -71
21 -71 32 0 44 227 206 308 219 18 3 35 10 38 14 3 5 17 9 32 9 15 0 41 7 57
16 23 12 66 16 190 17 l160 1 65 -32 c36 -17 84 -50 108 -73 39 -38 112 -148
112 -168 0 -5 7 -22 15 -37 8 -16 15 -40 15 -54 0 -15 4 -30 9 -35 27 -28 35
-195 38 -777 l3 -596 -39 -31 c-21 -17 -41 -31 -44 -31 -3 0 -38 -23 -79 -51
-89 -61 -354 -240 -377 -254 -9 -5 -18 -12 -21 -16 -3 -3 -59 -40 -125 -84
-66 -43 -122 -81 -125 -85 -8 -8 -183 -124 -200 -132 -8 -3 -24 -14 -35 -25
-11 -10 -43 -36 -70 -58 -28 -22 -61 -49 -75 -60 -44 -36 -264 -259 -305 -309
-44 -55 -125 -175 -125 -186 0 -4 -7 -13 -15 -20 -8 -7 -15 -19 -15 -28 0 -8
-6 -23 -13 -31 -12 -15 -28 -58 -56 -156 -9 -28 -11 -131 -8 -350 3 -296 13
-404 38 -430 5 -5 9 -14 9 -21 0 -15 35 -90 60 -129 11 -16 23 -37 27 -45 31
-68 195 -244 278 -300 28 -19 52 -36 55 -39 7 -8 165 -86 214 -105 21 -9 47
-16 58 -16 11 0 34 -6 51 -14 18 -8 52 -17 77 -19 25 -3 89 -10 143 -17 78
-10 111 -10 165 0 37 6 90 15 117 19 28 4 59 12 70 18 11 5 38 19 60 29 22 10
46 25 53 31 7 7 18 13 23 13 15 0 157 148 164 170 4 11 10 20 15 20 4 0 11 11
14 25 4 14 11 25 16 25 6 0 10 7 10 15 0 9 7 18 15 22 19 7 55 -24 55 -47 0
-10 7 -23 15 -30 8 -7 15 -19 15 -26 0 -8 4 -14 9 -14 5 0 12 -9 16 -19 9 -29
116 -129 176 -164 82 -48 118 -60 261 -88 55 -11 128 -5 233 19 44 9 152 59
173 79 7 7 16 13 20 13 14 1 100 87 139 140 41 55 83 137 83 162 0 8 4 18 9
23 6 6 11 44 13 85 l3 75 -35 0 -35 0 -3 -55 c-1 -30 -9 -69 -17 -87 -8 -17
-15 -34 -15 -37 0 -3 -14 -28 -30 -55 -22 -35 -43 -55 -75 -70 -44 -20 -47
-21 -95 -5 -27 9 -55 26 -63 37 -8 12 -24 33 -36 46 -11 13 -21 31 -21 41 0 9
-5 21 -10 26 -32 32 -34 125 -40 1764 -6 1705 -6 1712 -46 1823 -8 20 -14 48
-14 62 0 13 -4 26 -9 30 -5 3 -12 19 -16 35 -6 26 -76 172 -108 225 -68 111
-266 315 -306 315 -6 0 -11 3 -11 8 0 4 -9 12 -20 17 -200 100 -202 100 -370
139 -30 7 -62 15 -70 18 -8 4 -62 9 -120 13 -58 3 -118 7 -135 9 -16 2 -84 -2
-150 -9z m625 -3152 c0 -1041 -2 -1171 -16 -1221 -9 -32 -20 -61 -25 -66 -5
-6 -9 -18 -9 -27 0 -20 -73 -122 -122 -170 -44 -43 -124 -99 -142 -99 -7 0
-19 -7 -26 -15 -7 -8 -20 -15 -29 -15 -9 0 -21 -4 -26 -9 -16 -16 -96 -34
-171 -38 -110 -7 -201 28 -279 105 -68 68 -94 121 -122 247 -40 187 -21 1352
27 1580 48 237 117 351 275 461 28 19 102 71 165 115 140 98 246 171 268 184
10 6 19 13 22 16 9 11 165 116 180 121 8 3 18 3 23 1 4 -2 7 -529 7 -1170z"/>
<path d="M21245 19615 c-66 -7 -149 -21 -185 -30 -36 -9 -84 -20 -108 -24 -24
-4 -48 -13 -54 -19 -7 -7 -20 -12 -29 -12 -10 0 -30 -6 -46 -14 -15 -8 -46
-23 -68 -33 -42 -19 -150 -90 -193 -127 -41 -35 -108 -108 -148 -161 -21 -27
-41 -52 -44 -55 -9 -7 -54 -85 -80 -140 -12 -25 -27 -56 -34 -70 -7 -14 -21
-52 -31 -85 -10 -33 -20 -67 -23 -75 -14 -39 -33 -155 -42 -250 -11 -135 -11
-2528 0 -2680 10 -121 30 -243 43 -256 4 -4 7 -17 7 -28 0 -12 7 -34 15 -50 8
-15 15 -35 15 -43 0 -13 15 -48 41 -93 5 -8 12 -22 15 -30 3 -8 10 -22 15 -30
5 -8 12 -22 16 -30 4 -8 9 -17 13 -20 3 -3 17 -23 30 -45 51 -84 185 -221 277
-282 83 -55 197 -109 288 -136 212 -64 444 -82 665 -53 173 23 263 50 410 120
110 53 185 105 271 189 45 42 149 176 163 207 3 8 15 29 26 45 11 17 23 37 26
45 3 8 12 29 19 45 36 82 45 104 45 117 0 8 3 18 7 22 11 10 32 108 43 196 6
41 14 97 20 123 13 64 14 2609 0 2657 -5 19 -14 69 -19 110 -12 89 -33 186
-44 196 -4 4 -7 14 -7 22 0 13 -9 35 -45 117 -7 17 -16 37 -19 45 -4 8 -12 24
-19 35 -7 11 -25 42 -41 69 -38 65 -55 85 -161 192 -88 89 -170 150 -250 188
-22 10 -48 22 -57 27 -32 16 -102 41 -143 50 -65 14 -149 35 -165 41 -8 4 -58
9 -110 12 -52 4 -115 8 -140 10 -25 2 -99 -2 -165 -9z m272 -91 c12 -8 29 -14
37 -14 19 0 131 -104 149 -138 8 -15 27 -52 43 -82 16 -30 38 -82 47 -115 10
-33 23 -76 29 -95 22 -69 44 -280 58 -540 14 -274 14 -2481 0 -2735 -15 -257
-38 -464 -59 -518 -6 -16 -11 -39 -11 -52 0 -12 -7 -36 -15 -51 -8 -16 -15
-36 -15 -45 0 -14 -25 -66 -78 -164 -19 -37 -116 -121 -169 -146 -40 -20 -63
-24 -143 -24 -57 0 -105 5 -120 13 -67 35 -85 48 -134 97 -30 29 -64 75 -77
102 -13 26 -27 49 -31 51 -4 2 -10 19 -14 38 -3 19 -10 37 -15 40 -5 3 -9 17
-9 32 -1 15 -7 38 -15 52 -8 14 -14 44 -15 67 0 23 -5 54 -11 70 -6 15 -15 71
-20 123 -5 52 -13 131 -18 175 -13 105 -13 2911 0 3025 5 47 13 130 18 185 5
55 14 113 20 128 6 16 11 43 11 62 0 18 7 46 15 61 8 16 15 39 15 51 0 12 4
24 9 27 4 3 11 19 14 35 8 39 80 157 126 204 43 46 140 95 196 100 65 5 158
-4 182 -19z"/>
<path d="M23042 19548 l3 -33 183 -5 c167 -5 185 -7 198 -24 8 -11 14 -28 14
-38 0 -10 4 -26 9 -36 8 -16 20 -66 41 -174 5 -26 13 -56 19 -67 6 -11 11 -34
11 -51 0 -17 5 -40 11 -51 6 -11 14 -41 19 -67 5 -26 16 -74 24 -107 24 -100
48 -199 52 -225 3 -14 11 -47 19 -75 17 -62 35 -137 46 -190 8 -39 24 -104 55
-230 8 -33 19 -80 24 -105 9 -48 24 -105 46 -184 8 -26 14 -60 14 -75 0 -15 4
-31 9 -37 5 -5 13 -34 19 -64 6 -30 18 -84 27 -120 9 -36 20 -83 24 -105 12
-59 31 -135 44 -175 6 -19 14 -53 18 -75 14 -69 35 -159 41 -175 6 -15 21 -84
38 -172 5 -26 13 -56 19 -67 6 -11 11 -34 11 -51 0 -17 5 -40 11 -51 6 -11 14
-41 19 -67 9 -44 16 -77 55 -234 9 -35 20 -83 25 -108 9 -49 26 -116 41 -167
6 -18 14 -54 19 -80 5 -27 16 -75 24 -108 40 -161 48 -193 56 -235 11 -56 27
-121 46 -180 8 -25 14 -59 14 -77 0 -17 4 -34 9 -38 5 -3 13 -30 16 -60 4 -31
11 -58 16 -61 5 -3 9 -18 9 -33 0 -16 6 -51 14 -77 23 -80 37 -136 46 -184 9
-48 23 -104 46 -184 8 -26 14 -59 14 -71 0 -15 8 -25 23 -29 31 -8 100 -7 113
2 10 7 30 74 43 152 5 25 13 58 20 73 6 16 11 42 11 58 0 17 4 38 10 48 5 10
14 43 19 72 22 116 36 178 44 185 4 4 7 22 7 41 0 18 7 50 15 70 8 19 15 47
15 61 0 14 6 48 14 76 18 65 36 140 47 191 4 22 15 72 24 110 9 39 20 94 26
124 5 29 14 62 19 72 6 10 10 32 10 49 0 17 7 47 15 67 8 19 15 49 15 65 0 16
4 37 10 47 5 10 14 43 19 72 5 30 17 86 26 124 9 39 20 91 25 118 5 26 13 62
19 80 14 48 33 126 42 177 12 68 31 153 37 170 7 19 30 119 43 189 5 29 14 62
19 72 6 10 10 31 10 48 0 16 5 42 11 58 6 15 15 48 19 73 17 88 36 154 46 157
14 5 50 -112 73 -232 4 -22 12 -56 18 -75 13 -40 32 -116 44 -175 4 -22 15
-67 23 -100 35 -140 48 -193 56 -237 5 -26 13 -56 19 -67 6 -11 11 -34 11 -51
0 -17 5 -40 11 -51 6 -11 14 -41 19 -67 9 -44 19 -89 56 -237 8 -33 19 -81 24
-107 5 -26 13 -56 19 -67 6 -11 11 -34 11 -51 0 -17 5 -40 11 -51 6 -11 14
-41 19 -67 5 -26 16 -74 24 -107 37 -148 47 -193 56 -237 5 -26 13 -56 19 -67
6 -11 11 -34 11 -51 0 -17 5 -40 11 -51 6 -11 14 -41 19 -67 16 -82 32 -156
38 -172 7 -19 30 -111 41 -165 14 -65 32 -137 47 -185 8 -25 14 -54 14 -65 0
-11 7 -38 14 -60 l14 -40 61 -3 c58 -3 61 -2 76 27 8 17 15 41 15 54 0 14 6
47 14 73 23 81 38 146 45 194 4 25 10 51 14 58 5 6 12 33 17 60 5 26 16 79 25
117 9 39 20 94 26 124 5 29 14 62 19 72 6 10 10 28 10 40 0 12 6 45 14 73 18
63 36 138 47 191 4 22 15 72 24 110 9 39 21 94 26 124 5 29 14 62 19 72 6 10
10 28 10 40 0 12 6 45 14 73 18 63 36 138 47 191 4 22 15 72 24 110 9 39 21
94 26 124 5 29 14 62 19 72 6 10 10 28 10 40 0 12 6 45 14 73 18 63 36 138 47
191 4 22 15 72 24 110 9 39 21 95 27 125 5 30 14 59 19 64 5 6 9 23 9 40 0 16
6 52 14 80 18 63 36 138 47 191 4 22 15 72 24 110 9 39 21 95 27 125 5 30 14
59 19 64 5 6 9 23 9 40 0 16 6 52 14 80 17 62 36 137 47 191 16 78 35 160 41
175 7 19 26 110 37 176 5 28 14 61 20 72 6 11 11 34 11 51 0 16 5 42 11 58 6
15 15 48 20 73 13 70 35 163 41 180 5 13 15 58 35 152 3 15 11 33 19 39 8 6
14 20 14 30 0 23 150 179 172 179 9 0 21 7 28 15 7 8 22 15 34 15 12 0 26 4
31 9 6 6 53 15 105 22 115 13 130 20 130 59 l0 30 -461 0 -460 0 3 -32 3 -33
180 -6 c99 -3 181 -6 183 -7 6 -5 1 -64 -7 -80 -9 -17 -25 -85 -40 -172 -4
-25 -13 -63 -18 -85 -17 -62 -35 -136 -44 -180 -4 -22 -15 -71 -24 -110 -9
-38 -20 -91 -25 -118 -5 -26 -13 -62 -19 -80 -16 -53 -33 -129 -41 -177 -4
-25 -12 -58 -19 -73 -6 -16 -11 -43 -11 -61 0 -18 -3 -36 -7 -40 -8 -7 -22
-69 -44 -185 -5 -29 -14 -62 -19 -72 -6 -10 -10 -32 -10 -49 0 -17 -7 -47 -15
-67 -8 -19 -15 -49 -15 -65 0 -16 -4 -37 -10 -47 -5 -10 -14 -43 -19 -72 -13
-70 -36 -170 -43 -189 -7 -19 -26 -110 -37 -176 -5 -28 -14 -61 -20 -72 -6
-11 -11 -34 -11 -51 0 -16 -5 -42 -11 -58 -6 -15 -15 -48 -19 -73 -5 -25 -16
-76 -25 -115 -9 -38 -21 -94 -26 -124 -5 -29 -14 -62 -19 -72 -6 -10 -10 -28
-10 -40 0 -12 -6 -45 -14 -73 -18 -65 -36 -140 -47 -191 -4 -22 -15 -71 -24
-110 -9 -38 -20 -92 -25 -119 -5 -27 -13 -53 -18 -58 -11 -11 -52 71 -52 104
0 14 -7 42 -15 61 -8 20 -15 51 -15 70 0 18 -4 37 -9 43 -6 5 -14 34 -20 64
-9 52 -22 105 -57 245 -8 33 -19 80 -24 105 -9 48 -24 105 -46 184 -8 26 -14
59 -14 72 0 13 -4 32 -10 42 -9 16 -20 63 -39 157 -13 61 -31 135 -47 185 -8
25 -14 58 -14 73 0 16 -5 37 -11 48 -6 11 -14 41 -19 67 -5 26 -16 76 -25 112
-9 36 -20 86 -25 112 -5 26 -13 56 -19 67 -6 11 -11 34 -11 51 0 17 -5 40 -11
51 -6 11 -14 41 -19 67 -20 104 -33 158 -40 172 -4 9 -11 36 -14 60 -4 25 -11
54 -15 65 -8 19 -22 80 -41 177 -5 26 -13 56 -19 67 -6 11 -11 34 -11 51 0 17
-5 40 -11 51 -6 11 -14 41 -19 67 -5 26 -16 76 -25 112 -9 36 -20 86 -25 112
-5 26 -13 56 -19 67 -6 11 -11 34 -11 51 0 17 -5 40 -11 51 -11 21 -30 110
-30 143 0 11 6 23 13 27 7 5 93 9 191 9 l177 0 0 35 0 35 -1526 0 -1525 0 3
-32z m1905 -60 c11 -13 25 -48 31 -78 6 -30 18 -84 27 -120 9 -36 20 -83 24
-105 9 -43 27 -117 44 -180 5 -22 14 -58 18 -80 5 -22 15 -69 24 -105 9 -36
22 -92 30 -125 7 -33 21 -89 30 -125 9 -36 20 -85 25 -110 9 -48 24 -105 46
-184 8 -26 14 -61 14 -75 0 -15 3 -31 8 -35 6 -7 17 -54 41 -176 5 -25 14 -58
20 -73 14 -35 14 -102 1 -126 -5 -10 -14 -43 -19 -72 -6 -30 -17 -83 -25 -119
-36 -157 -47 -208 -57 -259 -5 -29 -14 -62 -19 -72 -6 -10 -10 -32 -10 -49 0
-17 -4 -39 -10 -49 -5 -10 -14 -43 -19 -72 -18 -97 -36 -174 -42 -184 -4 -5
-10 -36 -13 -67 -4 -32 -12 -60 -17 -63 -5 -4 -9 -22 -9 -41 0 -19 -7 -51 -15
-71 -8 -19 -15 -48 -15 -63 0 -15 -7 -47 -15 -70 -8 -23 -15 -54 -15 -69 0
-14 -7 -44 -15 -66 -8 -22 -14 -52 -15 -67 0 -15 -10 -44 -22 -64 -19 -32 -23
-35 -29 -18 -8 24 -29 107 -40 159 -9 45 -24 106 -45 179 -8 26 -14 60 -14 75
0 15 -4 31 -9 37 -5 5 -13 34 -19 64 -6 30 -18 84 -27 120 -8 36 -20 86 -25
112 -5 26 -13 56 -19 67 -6 11 -11 34 -11 51 0 17 -5 40 -11 51 -6 11 -14 41
-19 67 -8 45 -22 103 -56 237 -8 33 -19 80 -24 105 -9 48 -24 105 -46 184 -8
26 -14 61 -14 77 0 15 -4 30 -9 33 -5 4 -12 29 -16 58 -4 29 -11 59 -15 68 -7
14 -12 36 -39 165 -5 22 -13 53 -20 68 -6 16 -11 43 -11 61 0 17 -4 36 -9 41
-6 6 -15 35 -20 65 -10 51 -20 95 -57 245 -8 33 -19 78 -23 100 -12 59 -31
135 -44 175 -6 19 -14 53 -18 75 -4 22 -15 69 -24 105 -9 36 -20 86 -25 112
-5 26 -13 56 -19 67 -6 11 -11 33 -11 49 0 16 -7 46 -15 65 -18 44 -19 89 -3
105 9 9 106 12 373 12 l362 0 20 -22z"/>
<path d="M9100 13415 l0 -426 248 4 c282 4 320 10 385 67 34 30 47 52 62 99
18 59 18 63 0 116 -22 63 -54 101 -102 121 -41 18 -54 43 -29 58 58 35 87 84
93 155 8 100 -57 182 -167 212 -27 8 -133 14 -267 16 l-223 4 0 -426z m506
333 c57 -37 74 -67 74 -134 0 -71 -29 -114 -97 -144 -42 -19 -63 -20 -227 -18
l-181 3 -3 150 c-2 134 -1 151 15 163 14 11 57 13 198 10 173 -4 182 -6 221
-30z m43 -391 c52 -34 72 -66 79 -122 7 -69 -17 -116 -83 -160 -27 -17 -52
-20 -238 -23 -155 -3 -211 -1 -222 8 -20 17 -22 299 -2 319 9 10 58 12 218 9
205 -4 207 -4 248 -31z"/>
<path d="M10890 13415 l0 -425 295 0 c312 0 306 -1 289 44 -5 14 -37 16 -248
16 -132 0 -247 4 -254 8 -9 7 -12 47 -10 168 l3 159 215 3 c221 2 229 4 230
44 0 16 -19 18 -222 20 l-223 3 0 155 0 155 248 3 247 2 0 35 0 35 -285 0
-285 0 0 -425z"/>
<path d="M12820 13830 c0 -6 -18 -47 -39 -93 -21 -45 -51 -109 -66 -142 -15
-33 -35 -78 -45 -100 -28 -61 -89 -195 -112 -245 -11 -25 -33 -72 -48 -105
-15 -33 -35 -78 -45 -100 -10 -22 -20 -43 -22 -47 -2 -5 14 -8 36 -8 32 0 41
4 47 23 12 40 87 192 98 199 6 4 114 8 239 8 222 0 267 -5 267 -32 0 -6 13
-39 29 -72 16 -34 35 -76 42 -93 12 -29 18 -33 52 -33 21 0 37 3 35 8 -2 4 -9
18 -15 32 -5 14 -19 45 -31 70 -20 44 -34 76 -107 235 -40 86 -56 122 -105
230 -128 282 -120 270 -168 273 -25 2 -42 -1 -42 -8z m62 -107 c9 -10 23 -36
32 -58 18 -42 27 -63 69 -155 14 -30 34 -77 46 -105 12 -27 27 -60 33 -72 6
-12 8 -29 5 -38 -6 -13 -31 -15 -204 -13 l-198 3 2 25 c0 14 15 57 33 95 17
39 38 84 45 100 7 17 25 57 40 90 74 163 70 158 97 128z"/>
<path d="M14528 13820 c-136 -51 -216 -129 -263 -255 -26 -69 -26 -245 -1
-301 48 -106 69 -135 141 -189 41 -32 63 -43 129 -70 43 -17 253 -22 284 -6 9
4 39 18 65 30 27 12 61 34 76 48 26 26 26 28 9 45 -23 23 -34 23 -60 -2 -53
-50 -107 -65 -223 -64 -99 0 -116 3 -166 28 -72 35 -141 104 -174 173 -23 48
-26 68 -26 157 0 80 4 111 21 148 30 69 98 138 174 178 65 33 71 34 175 34
103 0 110 -2 169 -35 34 -18 62 -37 62 -41 0 -15 30 -8 49 11 18 18 18 19 -16
47 -38 32 -100 63 -125 64 -9 0 -20 5 -23 10 -11 18 -224 10 -277 -10z"/>
<path d="M16066 13824 c-3 -9 -6 -200 -6 -425 l0 -409 40 0 40 0 0 194 c0 168
2 195 16 200 9 3 127 6 263 6 179 0 250 -3 259 -12 8 -8 12 -67 12 -200 l0
-188 35 0 35 0 0 425 0 425 -35 0 -35 0 -2 -192 -3 -193 -270 0 -270 0 -6 190
c-3 105 -6 191 -7 193 -8 10 -61 -1 -66 -14z"/>
<path d="M17840 13822 c0 -9 9 -42 21 -72 11 -30 24 -68 29 -85 10 -39 59
-184 70 -210 4 -11 16 -45 25 -75 10 -30 22 -66 28 -80 5 -14 13 -38 17 -55
10 -35 28 -87 47 -132 7 -17 13 -40 13 -51 0 -12 5 -24 10 -27 6 -3 10 -15 10
-26 0 -18 6 -20 46 -17 l46 3 24 75 c13 41 28 84 33 95 15 37 33 90 38 115 3
14 9 30 13 35 4 6 18 44 30 85 13 41 26 82 30 90 10 21 30 79 40 115 12 46 39
105 48 105 10 0 34 -54 62 -140 12 -36 25 -74 30 -85 5 -11 11 -29 13 -40 6
-22 25 -78 38 -110 5 -11 18 -49 29 -85 12 -36 24 -72 27 -80 4 -8 18 -51 33
-95 l27 -80 40 -3 c37 -3 42 0 57 29 9 18 16 38 16 45 0 7 6 28 14 46 8 18 28
78 46 133 17 55 35 109 39 120 15 38 33 90 41 120 11 39 29 91 46 133 8 18 14
41 14 51 0 10 3 21 6 24 10 10 43 109 44 130 0 15 -7 18 -32 15 -26 -2 -34 -8
-40 -33 -7 -30 -82 -253 -97 -290 -13 -33 -32 -88 -41 -120 -10 -37 -30 -95
-40 -115 -4 -9 -11 -31 -15 -50 -4 -19 -11 -41 -15 -50 -4 -8 -13 -28 -20 -45
l-12 -30 -24 30 c-13 17 -24 38 -24 48 0 10 -5 28 -12 40 -6 12 -15 35 -19 52
-4 16 -13 46 -20 65 -6 19 -14 42 -17 50 -3 8 -25 71 -49 140 -24 69 -48 139
-53 155 -14 49 -32 98 -46 125 -16 32 -71 41 -80 13 -3 -10 -12 -32 -20 -50
-8 -17 -14 -37 -14 -45 0 -8 -4 -18 -8 -23 -5 -6 -19 -44 -32 -85 -12 -41 -26
-79 -30 -85 -4 -5 -10 -21 -13 -35 -5 -24 -20 -70 -38 -115 -4 -11 -18 -51
-30 -90 -12 -38 -26 -74 -31 -79 -4 -6 -8 -19 -8 -31 0 -26 -27 -65 -45 -65
-8 0 -17 12 -21 28 -3 15 -11 43 -18 62 -8 19 -21 60 -31 90 -9 30 -20 64 -25
75 -5 11 -16 45 -25 75 -17 52 -25 77 -55 160 -6 19 -14 46 -17 60 -3 14 -9
30 -13 35 -4 6 -11 25 -15 43 -13 63 -34 92 -66 92 -21 0 -29 -5 -29 -18z"/>
<path d="M20157 13833 c-4 -3 -7 -195 -7 -425 l0 -418 296 0 295 0 -3 28 -3
27 -250 5 c-137 3 -251 7 -253 8 -1 1 -1 75 0 165 l3 162 215 6 c118 3 216 6
218 7 1 1 2 13 2 27 l0 25 -217 2 -218 3 -3 158 -3 157 234 0 c252 0 276 5
263 48 -7 22 -9 22 -285 22 -153 0 -281 -3 -284 -7z"/>
<path d="M22082 13818 c-13 -28 -70 -151 -107 -233 -42 -92 -84 -185 -110
-240 -12 -27 -32 -70 -43 -95 -50 -111 -94 -207 -107 -232 l-14 -28 38 0 c29
0 40 5 48 23 47 97 73 155 73 164 0 5 8 17 18 26 27 25 466 25 500 1 12 -8 22
-21 22 -29 0 -7 6 -26 14 -42 8 -15 27 -54 42 -85 26 -56 29 -58 65 -58 l39 0
-19 38 c-11 20 -31 64 -46 97 -15 33 -43 94 -62 135 -19 41 -44 95 -55 120
-21 47 -40 88 -106 230 -22 47 -50 110 -62 140 -31 73 -47 90 -85 90 -23 0
-35 -6 -43 -22z m73 -108 c14 -25 61 -129 119 -262 8 -18 27 -58 41 -90 15
-31 24 -61 21 -67 -10 -15 -402 -15 -412 0 -3 6 -1 23 6 37 7 15 19 41 26 57
7 17 24 55 38 85 13 30 39 87 56 125 58 132 65 145 78 143 7 -2 19 -14 27 -28z"/>
<path d="M23580 13415 l0 -425 35 0 35 0 0 130 0 130 26 10 c14 6 84 10 155
10 113 0 131 -2 147 -19 19 -21 18 -19 117 -160 68 -97 71 -100 109 -101 l38
0 -17 28 c-10 15 -31 43 -47 63 -15 20 -28 41 -28 47 0 6 -4 12 -9 14 -5 2
-28 31 -51 66 -33 51 -39 66 -29 78 6 8 16 14 21 14 28 0 99 67 125 118 24 48
28 68 28 138 0 53 -5 88 -12 96 -7 6 -13 19 -13 28 0 18 -84 101 -120 118 -59
28 -125 36 -312 39 l-198 4 0 -426z m466 330 c87 -46 114 -92 114 -193 0 -167
-103 -232 -367 -232 -88 0 -115 3 -127 16 -14 13 -16 47 -16 218 0 111 3 206
7 209 3 4 82 7 174 7 160 0 170 -1 215 -25z"/>
</g>
</svg>
