<?xml version="1.0" encoding="UTF-8"?>
<svg xmlns="http://www.w3.org/2000/svg" xmlns:xlink="http://www.w3.org/1999/xlink" version="1.1" x="0px"
              y="0px" viewBox="0 0 100 162.915" style="fill: rgb(0, 0, 0);" xml:space="preserve"
              original_string_length="9278">
              <g>
                <path style="fill: rgb(0, 0, 0);"
                  d="M50.024,99.329c-2.78,0-5.035,2.254-5.035,5.035v53.516c0,2.783,2.255,5.035,5.035,5.035   c2.781,0,5.035-2.252,5.035-5.035v-53.516C55.061,101.583,52.805,99.329,50.024,99.329z" />

                <linearGradient id="__id206_s7i953q1yh" gradientUnits="userSpaceOnUse" x1="61.709" y1="761.0972"
                  x2="71.7783" y2="761.0972" gradientTransform="matrix(1 0 0 1 -16.7197 -629.9756)">
                  <stop offset="0" style="stop-color:#010101;stop-opacity:0.9" />
                  <stop offset="0.2145" style="stop-color:#010101;stop-opacity:0.7" />
                  <stop offset="1" style="stop-color:#010101;stop-opacity:0" />
                </linearGradient>
                <path style="opacity:0.4;fill:url(#__id206_s7i953q1yh);enable-background:new    ;"
                  d="M50.024,99.329c-2.78,0-5.035,2.254-5.035,5.035   v53.516c0,2.783,2.255,5.035,5.035,5.035c2.781,0,5.035-2.252,5.035-5.035v-53.516C55.061,101.583,52.805,99.329,50.024,99.329z" />

                <linearGradient id="__id207_s7i953q1yh" gradientUnits="userSpaceOnUse" x1="61.709" y1="761.0972"
                  x2="71.7783" y2="761.0972" gradientTransform="matrix(1 0 0 1 -16.7197 -629.9756)">
                  <stop offset="0" style="stop-color:#010101;stop-opacity:0.9" />
                  <stop offset="0.6071" style="stop-color:#010101;stop-opacity:0" />
                  <stop offset="1" style="stop-color:#010101;stop-opacity:0.7" />
                </linearGradient>
                <path style="opacity:0.4;fill:url(#__id207_s7i953q1yh);enable-background:new    ;"
                  d="M50.024,99.329c-2.78,0-5.035,2.254-5.035,5.035   v53.516c0,2.783,2.255,5.035,5.035,5.035c2.781,0,5.035-2.252,5.035-5.035v-53.516C55.061,101.583,52.805,99.329,50.024,99.329z" />
              </g>
              <g>
                <g id="__id208_s7i953q1yh">
                  <path style="fill:#EF4136;"
                    d="M50.149,59.409c21.492-0.19,43.117,12.365,48.826,32.033c6.09,19.872-15.578,37.09-48.781,37.234    C16.949,129.517-4.984,112.901,0.977,92.7C6.645,72.748,28.536,59.698,50.149,59.409z" />
                </g>

                <linearGradient id="__id209_s7i953q1yh" gradientUnits="userSpaceOnUse" x1="50.1597" y1="2064.6821"
                  x2="150.1582" y2="2064.6821" gradientTransform="matrix(1 0 0 1 -50.1592 -1970.625)">
                  <stop offset="0" style="stop-color:#010101;stop-opacity:0.8" />
                  <stop offset="1" style="stop-color:#FFFFFF;stop-opacity:0" />
                </linearGradient>
                <path style="display:none;opacity:0.4;fill:url(#__id209_s7i953q1yh);enable-background:new    ;"
                  d="M50.149,59.409   c21.492-0.19,43.117,12.365,48.826,32.033c6.09,19.872-15.578,37.09-48.781,37.234C16.949,129.517-4.984,112.901,0.977,92.7   C6.645,72.748,28.536,59.698,50.149,59.409z" />

                <linearGradient id="__id210_s7i953q1yh" gradientUnits="userSpaceOnUse" x1="1116.4199" y1="678.8677"
                  x2="1207.0977" y2="678.8677"
                  gradientTransform="matrix(0.8181 0.575 -0.575 0.8181 -509.3683 -1126.2974)">
                  <stop offset="0" style="stop-color:#010101;stop-opacity:0.8" />
                  <stop offset="1" style="stop-color:#FFFFFF;stop-opacity:0" />
                </linearGradient>
                <path style="opacity:0.4;fill:url(#__id210_s7i953q1yh);enable-background:new    ;"
                  d="M95.309,112.495   c-14.865,16.943-52.696,21.105-78.542,10.104c-22.65-11.285-20.981-35.272-2.017-49.578c15.941-14.578,40.08-17.614,58.732-8.357   C94.963,73.662,107.062,95.189,95.309,112.495z" />
                <g style="opacity:0.4;">
                  <g>
                    <g>
                      <g>
                        <defs>
                          <path id="__id211_s7i953q1yh"
                            d="M50.149,59.409c21.492-0.19,43.117,12.365,48.826,32.033c6.09,19.872-15.578,37.09-48.781,37.234        C16.949,129.517-4.984,112.901,0.977,92.7C6.645,72.748,28.536,59.698,50.149,59.409z"
                            style="fill: inherit;" />
                        </defs>
                        <clipPath id="__id212_s7i953q1yh">
                          <use xlink:href="#__id211_s7i953q1yh" style="overflow:visible;" />
                        </clipPath>

                        <radialGradient id="__id213_s7i953q1yh" cx="83.9805" cy="2095.9077" r="49.8389"
                          gradientTransform="matrix(1.0127 -0.2615 0.2657 1.0291 -584.6644 -2047.9912)"
                          gradientUnits="userSpaceOnUse">
                          <stop offset="0.5951" style="stop-color:#010101;stop-opacity:0" />
                          <stop offset="0.9406" style="stop-color:#010101;stop-opacity:0.6512" />
                          <stop offset="1" style="stop-color:#010101;stop-opacity:0.7" />
                        </radialGradient>
                        <path style="clip-path:url(#__id212_s7i953q1yh);fill:url(#__id213_s7i953q1yh);"
                          d="M45.872,45.965c24.075-6.59,53.374,1.549,67.556,22.964       c14.887,21.618-4.646,48.575-44.566,58.911c-39.703,11.346-70.744-1.379-69.394-27.42C0.5,74.874,21.682,52.766,45.872,45.965z       " />
                      </g>
                    </g>
                  </g>
                </g>
                <g style="opacity:0.3;">
                  <g>
                    <g>
                      <g>
                        <defs>
                          <path id="__id214_s7i953q1yh"
                            d="M50.149,59.409c21.492-0.19,43.117,12.365,48.826,32.033c6.09,19.872-15.578,37.09-48.781,37.234        C16.949,129.517-4.984,112.901,0.977,92.7C6.645,72.748,28.536,59.698,50.149,59.409z"
                            style="fill: inherit;" />
                        </defs>
                        <clipPath id="__id215_s7i953q1yh">
                          <use xlink:href="#__id214_s7i953q1yh" style="overflow:visible;" />
                        </clipPath>

                        <radialGradient id="__id216_s7i953q1yh" cx="609.6855" cy="547.1021" r="49.5852"
                          gradientTransform="matrix(0.2258 0.8917 -0.9652 0.2444 442.4764 -585.155)"
                          gradientUnits="userSpaceOnUse">
                          <stop offset="0.5951" style="stop-color:#010101;stop-opacity:0" />
                          <stop offset="0.9406" style="stop-color:#010101;stop-opacity:0.6512" />
                          <stop offset="1" style="stop-color:#010101;stop-opacity:0.7" />
                        </radialGradient>
                        <path style="clip-path:url(#__id215_s7i953q1yh);fill:url(#__id216_s7i953q1yh);"
                          d="M105.346,78.701c11.854,17.662-3.068,41.242-36.293,48.401       c-35.083,7.732-69.102-3.096-72.907-26.484c-2.36-23.565,18.831-41.533,45.413-44.248       C67.062,53.605,94.699,61.123,105.346,78.701z" />
                      </g>
                    </g>
                  </g>
                </g>

                <radialGradient id="__id217_s7i953q1yh" cx="119.0127" cy="2059.6353" r="20.0108"
                  gradientTransform="matrix(1 0 0 1 -50.1592 -1970.625)" gradientUnits="userSpaceOnUse">
                  <stop offset="0" style="stop-color:#FFFFFF;stop-opacity:0.6512" />
                  <stop offset="0.2145" style="stop-color:#FFFFFF;stop-opacity:0.7" />
                  <stop offset="1" style="stop-color:#FFFFFF;stop-opacity:0" />
                </radialGradient>
                <path style="opacity:0.3;fill:url(#__id217_s7i953q1yh);enable-background:new    ;"
                  d="M91.753,87.611   c2.349,9.046-7.063,17.112-21.112,17.501c-14.059,0.445-25.281-6.697-25.042-15.591c0.24-8.896,9.792-16.021,21.309-16.595   C78.398,72.36,89.475,78.575,91.753,87.611z" />
              </g>
              <g>
                <g id="__id218_s7i953q1yh">
                  <path style="fill:#EF4136;"
                    d="M50,25.953c-11.385,0-20.615,6.221-20.615,13.897v39.116c0,7.675,9.23,13.896,20.615,13.896    s20.613-6.222,20.613-13.896V39.85C70.613,32.174,61.385,25.953,50,25.953z" />
                </g>

                <linearGradient id="__id219_s7i953q1yh" gradientUnits="userSpaceOnUse" x1="46.1045" y1="689.3833"
                  x2="87.333" y2="689.3833" gradientTransform="matrix(1 0 0 1 -16.7197 -629.9756)">
                  <stop offset="0" style="stop-color:#010101;stop-opacity:0.9" />
                  <stop offset="0.2145" style="stop-color:#010101;stop-opacity:0.7" />
                  <stop offset="1" style="stop-color:#010101;stop-opacity:0" />
                </linearGradient>
                <path style="opacity:0.5;fill:url(#__id219_s7i953q1yh);enable-background:new    ;"
                  d="M50,25.953c-11.385,0-20.615,6.221-20.615,13.897   v39.116c0,7.675,9.23,13.896,20.615,13.896s20.613-6.222,20.613-13.896V39.85C70.613,32.174,61.385,25.953,50,25.953z" />

                <linearGradient id="__id220_s7i953q1yh" gradientUnits="userSpaceOnUse" x1="46.1045" y1="689.3833"
                  x2="87.333" y2="689.3833" gradientTransform="matrix(1 0 0 1 -16.7197 -629.9756)">
                  <stop offset="0" style="stop-color:#010101;stop-opacity:0.9" />
                  <stop offset="0.6071" style="stop-color:#010101;stop-opacity:0" />
                  <stop offset="1" style="stop-color:#010101;stop-opacity:0.7" />
                </linearGradient>
                <path style="opacity:0.5;fill:url(#__id220_s7i953q1yh);enable-background:new    ;"
                  d="M50,25.953c-11.385,0-20.615,6.221-20.615,13.897   v39.116c0,7.675,9.23,13.896,20.615,13.896s20.613-6.222,20.613-13.896V39.85C70.613,32.174,61.385,25.953,50,25.953z" />
              </g>
              <g>
                <g id="__id221_s7i953q1yh">
                  <ellipse style="fill:#EF4136;" cx="50" cy="29.278" rx="39.05" ry="27.875" />
                </g>

                <radialGradient id="__id222_s7i953q1yh" cx="58.3311" cy="2188.9009" r="35.398"
                  gradientTransform="matrix(1.0753 0 0 0.809 -12.7226 -1740.8718)" gradientUnits="userSpaceOnUse">
                  <stop offset="0.5951" style="stop-color:#010101;stop-opacity:0" />
                  <stop offset="0.9406" style="stop-color:#010101;stop-opacity:0.6512" />
                  <stop offset="1" style="stop-color:#010101;stop-opacity:0.7" />
                </radialGradient>
                <ellipse style="opacity:0.8;fill:url(#__id222_s7i953q1yh);enable-background:new    ;" cx="50"
                  cy="29.949" rx="39.05" ry="27.875" />
                <g id="__id223_s7i953q1yh">
                  <ellipse style="fill:#EF4136;" cx="50" cy="25.438" rx="39.05" ry="25.438" />
                </g>

                <linearGradient id="__id224_s7i953q1yh" gradientUnits="userSpaceOnUse" x1="61.1094" y1="1996.063"
                  x2="139.209" y2="1996.063" gradientTransform="matrix(1 0 0 1 -50.1592 -1970.625)">
                  <stop offset="0" style="stop-color:#FFFFFF;stop-opacity:0.1" />
                  <stop offset="0.2145" style="stop-color:#FFFFFF;stop-opacity:0.1" />
                  <stop offset="1" style="stop-color:#FFFFFF;stop-opacity:0" />
                </linearGradient>
                <ellipse style="fill:url(#__id224_s7i953q1yh);" cx="50" cy="25.438" rx="39.05" ry="25.438" />
              </g>
            </svg>